<svg width="37" height="39" viewBox="0 0 37 39" fill="none" xmlns="http://www.w3.org/2000/svg">
<rect width="37" height="37" rx="5" fill="#141718"/>
<path d="M20.3156 22.8531C21.0215 22.5842 21.6151 22.0833 21.9988 21.4326L23.2702 19.2768C24.9929 16.3557 29.4697 17.5775 29.4697 20.9688V26.1189C29.4697 27.9584 27.9785 29.4496 26.139 29.4496H21.0987C17.4005 29.4496 16.4571 24.323 19.913 23.0065L20.3156 22.8531Z" fill="white"/>
<path d="M14.3749 18.4923C14.327 19.2462 14.5369 19.994 14.97 20.6129L16.4049 22.6634C18.3494 25.4419 15.382 29.0097 12.2957 27.6041L7.60872 25.4695C5.9347 24.7072 5.19568 22.7321 5.95807 21.058L8.04714 16.471C9.57991 13.1054 14.6364 14.3716 14.4022 18.0624L14.3749 18.4923Z" fill="white"/>
<path d="M20.6553 16.3109C20.0689 15.8347 19.338 15.572 18.5826 15.5658L16.08 15.5456C12.6888 15.5182 11.5033 11.0317 14.4382 9.33264L18.8954 6.75238C20.4874 5.8308 22.525 6.37424 23.4465 7.96618L25.9718 12.3283C27.8246 15.5289 23.8605 18.9138 20.9897 16.5825L20.6553 16.3109Z" fill="white"/>
</svg>
