<svg width="30" height="30" viewBox="0 0 30 30" fill="none" xmlns="http://www.w3.org/2000/svg">
<path fill-rule="evenodd" clip-rule="evenodd" d="M21.8867 21.2908C18.7841 21.2908 18.7841 21.5255 18.7841 24.3934V24.4216C18.7841 25.6705 18.7841 26.5731 19.0898 26.9544C19.3888 27.3244 20.2767 27.4959 21.8867 27.4959C23.4966 27.4959 24.3845 27.3233 24.6835 26.9533C24.9892 26.5731 24.9892 25.6705 24.9892 24.4204C24.9892 21.5255 24.9892 21.2908 21.8867 21.2908ZM21.8867 29.1884C19.9845 29.1884 18.5573 28.9887 17.7732 28.015C17.0918 27.17 17.0918 26.017 17.0918 24.4217L17.938 24.3935H17.0918C17.0918 21.1556 17.296 19.5986 21.8867 19.5986C26.4773 19.5986 26.6815 21.1556 26.6815 24.3935C26.6815 26.0159 26.6815 27.17 26.0001 28.015C25.216 28.9887 23.7888 29.1884 21.8867 29.1884Z" fill="#9E9E9E"/>
<path fill-rule="evenodd" clip-rule="evenodd" d="M9.47651 21.2908C6.37394 21.2908 6.37394 21.5255 6.37394 24.3934V24.4216C6.37394 25.6705 6.37394 26.5731 6.67969 26.9544C6.97866 27.3244 7.86656 27.4959 9.47651 27.4959C11.0865 27.4959 11.9744 27.3233 12.2733 26.9533C12.5791 26.5731 12.5791 25.6705 12.5791 24.4204C12.5791 21.5255 12.5791 21.2908 9.47651 21.2908ZM9.47651 29.1884C7.57436 29.1884 6.14718 28.9887 5.36308 28.015C4.68164 27.17 4.68164 26.017 4.68164 24.4217L5.52779 24.3935H4.68164C4.68164 21.1556 4.88585 19.5986 9.47651 19.5986C14.0672 19.5986 14.2714 21.1556 14.2714 24.3935C14.2714 26.0159 14.2714 27.17 13.5899 28.015C12.8058 28.9887 11.3787 29.1884 9.47651 29.1884Z" fill="#9E9E9E"/>
<path fill-rule="evenodd" clip-rule="evenodd" d="M21.8867 8.88075C18.7841 8.88075 18.7841 9.11542 18.7841 11.9833V12.0115C18.7841 13.2604 18.7841 14.163 19.0898 14.5443C19.3888 14.9144 20.2767 15.0859 21.8867 15.0859C23.4966 15.0859 24.3845 14.9133 24.6835 14.5432C24.9892 14.163 24.9892 13.2604 24.9892 12.0104C24.9892 9.11542 24.9892 8.88075 21.8867 8.88075ZM21.8867 16.7782C19.9845 16.7782 18.5573 16.5785 17.7732 15.6049C17.0918 14.7599 17.0918 13.6068 17.0918 12.0116L17.938 11.9833H17.0918C17.0918 8.7454 17.296 7.18848 21.8867 7.18848C26.4773 7.18848 26.6815 8.7454 26.6815 11.9833C26.6815 13.6057 26.6815 14.7599 26.0001 15.6049C25.216 16.5785 23.7888 16.7782 21.8867 16.7782Z" fill="#9E9E9E"/>
<path fill-rule="evenodd" clip-rule="evenodd" d="M9.47651 8.88075C6.37394 8.88075 6.37394 9.11542 6.37394 11.9833V12.0115C6.37394 13.2604 6.37394 14.163 6.67969 14.5443C6.97866 14.9144 7.86656 15.0859 9.47651 15.0859C11.0865 15.0859 11.9744 14.9133 12.2733 14.5432C12.5791 14.163 12.5791 13.2604 12.5791 12.0104C12.5791 9.11542 12.5791 8.88075 9.47651 8.88075ZM9.47651 16.7782C7.57436 16.7782 6.14718 16.5785 5.36308 15.6049C4.68164 14.7599 4.68164 13.6068 4.68164 12.0116L5.52779 11.9833H4.68164C4.68164 8.7454 4.88585 7.18848 9.47651 7.18848C14.0672 7.18848 14.2714 8.7454 14.2714 11.9833C14.2714 13.6057 14.2714 14.7599 13.5899 15.6049C12.8058 16.5785 11.3787 16.7782 9.47651 16.7782Z" fill="#9E9E9E"/>
</svg>
