<svg width="14" height="16" viewBox="0 0 14 16" fill="none" xmlns="http://www.w3.org/2000/svg">
<path d="M13.75 5.705C13.7422 5.6361 13.7271 5.56822 13.705 5.5025V5.435C13.6689 5.35788 13.6208 5.287 13.5625 5.225L9.0625 0.725C9.0005 0.666662 8.92962 0.618561 8.8525 0.5825C8.83011 0.57932 8.80739 0.57932 8.785 0.5825C8.70881 0.538806 8.62467 0.510758 8.5375 0.5H5.5C4.90326 0.5 4.33097 0.737053 3.90901 1.15901C3.48705 1.58097 3.25 2.15326 3.25 2.75V3.5H2.5C1.90326 3.5 1.33097 3.73705 0.90901 4.15901C0.487053 4.58097 0.25 5.15326 0.25 5.75V13.25C0.25 13.8467 0.487053 14.419 0.90901 14.841C1.33097 15.2629 1.90326 15.5 2.5 15.5H8.5C9.09674 15.5 9.66903 15.2629 10.091 14.841C10.5129 14.419 10.75 13.8467 10.75 13.25V12.5H11.5C12.0967 12.5 12.669 12.2629 13.091 11.841C13.5129 11.419 13.75 10.8467 13.75 10.25V5.75C13.75 5.75 13.75 5.75 13.75 5.705ZM9.25 3.0575L11.1925 5H10C9.80109 5 9.61032 4.92098 9.46967 4.78033C9.32902 4.63968 9.25 4.44891 9.25 4.25V3.0575ZM9.25 13.25C9.25 13.4489 9.17098 13.6397 9.03033 13.7803C8.88968 13.921 8.69891 14 8.5 14H2.5C2.30109 14 2.11032 13.921 1.96967 13.7803C1.82902 13.6397 1.75 13.4489 1.75 13.25V5.75C1.75 5.55109 1.82902 5.36032 1.96967 5.21967C2.11032 5.07902 2.30109 5 2.5 5H3.25V10.25C3.25 10.8467 3.48705 11.419 3.90901 11.841C4.33097 12.2629 4.90326 12.5 5.5 12.5H9.25V13.25ZM12.25 10.25C12.25 10.4489 12.171 10.6397 12.0303 10.7803C11.8897 10.921 11.6989 11 11.5 11H5.5C5.30109 11 5.11032 10.921 4.96967 10.7803C4.82902 10.6397 4.75 10.4489 4.75 10.25V2.75C4.75 2.55109 4.82902 2.36032 4.96967 2.21967C5.11032 2.07902 5.30109 2 5.5 2H7.75V4.25C7.75 4.84674 7.98705 5.41903 8.40901 5.84099C8.83097 6.26295 9.40326 6.5 10 6.5H12.25V10.25Z" fill="#BDBDBD"/>
</svg>
