<svg width="15" height="15" viewBox="0 0 15 15" fill="none" xmlns="http://www.w3.org/2000/svg">
<path fill-rule="evenodd" clip-rule="evenodd" d="M9.04794 0.617317C9.87103 -0.205774 11.2055 -0.205771 12.0286 0.617319L13.5543 2.14296C14.3773 2.96605 14.3773 4.30055 13.5543 5.12363L8.22485 10.453C8.09309 10.5848 7.9144 10.6588 7.72807 10.6588H4.21531C3.8273 10.6588 3.51276 10.3443 3.51276 9.95626V6.4435C3.51276 6.25718 3.58678 6.07848 3.71853 5.94673L9.04794 0.617317ZM11.0351 1.61088C10.7607 1.33651 10.3159 1.33651 10.0415 1.61088L4.91786 6.73451V9.25371H7.43706L12.5607 4.13008C12.8351 3.85571 12.8351 3.41088 12.5607 3.13652L11.0351 1.61088L11.4012 1.24473L11.0351 1.61088ZM3.51276 1.52564C2.34873 1.52564 1.4051 2.46927 1.4051 3.6333V10.6588C1.4051 11.8228 2.34873 12.7665 3.51276 12.7665H10.5383C11.7023 12.7665 12.6459 11.8228 12.6459 10.6588V8.55116C12.6459 8.16315 12.9605 7.84861 13.3485 7.84861C13.7365 7.84861 14.051 8.16315 14.051 8.55116V10.6588C14.051 12.5989 12.4783 14.1716 10.5383 14.1716H3.51276C1.57272 14.1716 0 12.5989 0 10.6588V3.6333C0 1.69326 1.57272 0.120539 3.51276 0.120539H5.62041C6.00842 0.120539 6.32297 0.435082 6.32297 0.823091C6.32297 1.2111 6.00842 1.52564 5.62041 1.52564H3.51276Z" fill="#BDBDBD"/>
</svg>
