<svg width="25" height="25" viewBox="0 0 25 25" fill="none" xmlns="http://www.w3.org/2000/svg">
<path fill-rule="evenodd" clip-rule="evenodd" d="M8.28657 8.99179C7.23265 8.96827 6.39729 8.09493 6.42063 7.04101C6.44396 5.98708 7.31716 5.15157 8.37108 5.17473C9.42501 5.19788 10.2607 6.07092 10.2377 7.12486C10.2267 7.63121 10.0149 8.11242 9.64894 8.46257C9.283 8.81271 8.79291 9.00309 8.28657 8.99179V8.99179Z" stroke="#909090" stroke-width="1.5" stroke-linecap="round" stroke-linejoin="round"/>
<path fill-rule="evenodd" clip-rule="evenodd" d="M17.0563 15.5483C18.1104 15.5712 18.9462 16.4443 18.9233 17.4984C18.9003 18.5525 18.0272 19.3883 16.9731 19.3653C15.9191 19.3424 15.0832 18.4693 15.1062 17.4152C15.1291 16.3611 16.0022 15.5253 17.0563 15.5483V15.5483Z" stroke="#909090" stroke-width="1.5" stroke-linecap="round" stroke-linejoin="round"/>
<path d="M17.0248 11.7291C17.0158 12.1432 17.3442 12.4862 17.7583 12.4952C18.1724 12.5042 18.5155 12.1759 18.5245 11.7617L17.0248 11.7291ZM17.812 10.0318L18.5618 10.0481L18.5619 10.0438L17.812 10.0318ZM15.1004 7.23107L15.084 7.9809L15.0881 7.98097L15.1004 7.23107ZM10.2539 6.37528C9.83976 6.36625 9.49674 6.69464 9.48772 7.10876C9.47869 7.52287 9.80708 7.86589 10.2212 7.87492L10.2539 6.37528ZM17.256 11.2036C16.9568 11.4901 16.9465 11.9648 17.2329 12.2641C17.5194 12.5633 17.9941 12.5736 18.2933 12.2872L17.256 11.2036ZM20.2435 10.4202C20.5427 10.1338 20.553 9.659 20.2666 9.3598C19.9801 9.06059 19.5054 9.05024 19.2062 9.33669L20.2435 10.4202ZM17.2329 12.2641C17.5194 12.5633 17.9941 12.5736 18.2933 12.2872C18.5925 12.0007 18.6029 11.526 18.3164 11.2268L17.2329 12.2641ZM16.4495 9.27661C16.163 8.97741 15.6883 8.96706 15.3891 9.25351C15.0899 9.53995 15.0795 10.0147 15.366 10.3139L16.4495 9.27661ZM8.31717 12.8126C8.3262 12.3985 7.9978 12.0555 7.58369 12.0464C7.16957 12.0374 6.82655 12.3658 6.81753 12.7799L8.31717 12.8126ZM7.53003 14.5089L6.78019 14.4925L6.78012 14.4969L7.53003 14.5089ZM10.2417 17.3096L10.258 16.5598L10.2539 16.5597L10.2417 17.3096ZM15.0882 18.1654C15.5023 18.1744 15.8453 17.846 15.8543 17.4319C15.8633 17.0178 15.535 16.6748 15.1208 16.6658L15.0882 18.1654ZM8.08602 13.337C8.38523 13.0506 8.39557 12.5758 8.10913 12.2766C7.82269 11.9774 7.34793 11.9671 7.04872 12.2535L8.08602 13.337ZM5.09858 14.1205C4.79938 14.4069 4.78903 14.8817 5.07548 15.1809C5.36192 15.4801 5.83668 15.4904 6.13588 15.204L5.09858 14.1205ZM8.10913 12.2766C7.82269 11.9774 7.34793 11.9671 7.04872 12.2535C6.74952 12.54 6.73917 13.0147 7.02561 13.3139L8.10913 12.2766ZM8.89257 15.2641C9.17901 15.5633 9.65377 15.5736 9.95298 15.2872C10.2522 15.0007 10.2625 14.526 9.97608 14.2268L8.89257 15.2641ZM18.5245 11.7617L18.5618 10.0481L17.0622 10.0155L17.0248 11.7291L18.5245 11.7617ZM18.5619 10.0438C18.5929 8.10765 17.0488 6.51279 15.1126 6.48117L15.0881 7.98097C16.1962 7.99906 17.0798 8.91178 17.0621 10.0198L18.5619 10.0438ZM15.1167 6.48124L10.2539 6.37528L10.2212 7.87492L15.084 7.98089L15.1167 6.48124ZM18.2933 12.2872L20.2435 10.4202L19.2062 9.33669L17.256 11.2036L18.2933 12.2872ZM18.3164 11.2268L16.4495 9.27661L15.366 10.3139L17.2329 12.2641L18.3164 11.2268ZM6.81753 12.7799L6.78021 14.4925L8.27985 14.5252L8.31717 12.8126L6.81753 12.7799ZM6.78012 14.4969C6.74914 16.433 8.29326 18.0279 10.2294 18.0595L10.2539 16.5597C9.14587 16.5416 8.2622 15.6289 8.27993 14.5209L6.78012 14.4969ZM10.2253 18.0594L15.0882 18.1654L15.1208 16.6658L10.258 16.5598L10.2253 18.0594ZM7.04872 12.2535L5.09858 14.1205L6.13588 15.204L8.08602 13.337L7.04872 12.2535ZM7.02561 13.3139L8.89257 15.2641L9.97608 14.2268L8.10913 12.2766L7.02561 13.3139Z" fill="#909090"/>
</svg>
