<svg width="25" height="26" viewBox="0 0 25 26" fill="none" xmlns="http://www.w3.org/2000/svg">
<path fill-rule="evenodd" clip-rule="evenodd" d="M12.5217 2.31282C6.72465 2.31282 2.00858 7.02889 2.00858 12.826C2.00858 18.623 6.72465 23.3391 12.5217 23.3391C18.3188 23.3391 23.0348 18.623 23.0348 12.826C23.0348 7.02889 18.3188 2.31282 12.5217 2.31282ZM12.5217 25.1943C5.70178 25.1943 0.15332 19.6458 0.15332 12.8259C0.15332 6.00598 5.70178 0.45752 12.5217 0.45752C19.3416 0.45752 24.8901 6.00598 24.8901 12.8259C24.8901 19.6458 19.3416 25.1943 12.5217 25.1943Z" fill="#9E9E9E"/>
<path fill-rule="evenodd" clip-rule="evenodd" d="M16.7653 17.3929C16.6033 17.3929 16.44 17.3508 16.2904 17.263L11.6275 14.4814C11.348 14.3131 11.1748 14.0101 11.1748 13.6836V7.6874C11.1748 7.17534 11.5904 6.75977 12.1024 6.75977C12.6157 6.75977 13.0301 7.17534 13.0301 7.6874V13.1567L17.2415 15.6675C17.6806 15.9309 17.8253 16.4999 17.5631 16.9402C17.3887 17.2308 17.0807 17.3929 16.7653 17.3929Z" fill="#9E9E9E"/>
</svg>
