<svg width="32" height="33" viewBox="0 0 32 33" fill="none" xmlns="http://www.w3.org/2000/svg">
<path fill-rule="evenodd" clip-rule="evenodd" d="M0 16.6142C0 15.9433 0.543886 15.3994 1.2148 15.3994H22.2714C22.9423 15.3994 23.4862 15.9433 23.4862 16.6142C23.4862 17.2851 22.9423 17.829 22.2714 17.829H1.2148C0.543886 17.829 0 17.2851 0 16.6142Z" fill="white"/>
<path fill-rule="evenodd" clip-rule="evenodd" d="M14.933 7.65659C15.4074 7.18218 16.1765 7.18218 16.6509 7.65659L24.6351 15.6407C25.1728 16.1784 25.1728 17.0501 24.6351 17.5878L16.6509 25.5719C16.1765 26.0464 15.4074 26.0464 14.933 25.5719C14.4585 25.0975 14.4585 24.3284 14.933 23.854L22.1726 16.6143L14.933 9.37458C14.4585 8.90017 14.4585 8.131 14.933 7.65659Z" fill="white"/>
<path fill-rule="evenodd" clip-rule="evenodd" d="M21.5964 1.49703C21.5964 0.826112 22.1403 0.282227 22.8112 0.282227H30.208C30.9684 0.282227 31.5848 0.898634 31.5848 1.659V31.5701C31.5848 32.3305 30.9684 32.9469 30.208 32.9469H21.7314C21.0605 32.9469 20.5166 32.403 20.5166 31.7321C20.5166 31.0612 21.0605 30.5173 21.7314 30.5173H29.1552V2.71183H22.8112C22.1403 2.71183 21.5964 2.16795 21.5964 1.49703Z" fill="white"/>
</svg>
