<svg width="33" height="33" viewBox="0 0 33 33" fill="none" xmlns="http://www.w3.org/2000/svg">
<path d="M13.7268 4.38155C14.3894 1.65016 18.2749 1.65016 18.9376 4.38155C19.037 4.79188 19.2319 5.17294 19.5064 5.4937C19.7809 5.81447 20.1273 6.06589 20.5174 6.22749C20.9074 6.38909 21.3301 6.4563 21.7511 6.42367C22.172 6.39103 22.5793 6.25946 22.9398 6.03967C25.3398 4.57754 28.0883 7.32448 26.6262 9.72611C26.4067 10.0864 26.2754 10.4935 26.2428 10.9141C26.2102 11.3348 26.2774 11.7572 26.4388 12.147C26.6002 12.5368 26.8513 12.883 27.1717 13.1575C27.4921 13.432 27.8728 13.6271 28.2828 13.7268C31.0142 14.3894 31.0142 18.2749 28.2828 18.9376C27.8724 19.037 27.4914 19.2319 27.1706 19.5064C26.8498 19.7809 26.5984 20.1273 26.4368 20.5174C26.2752 20.9074 26.208 21.3301 26.2406 21.7511C26.2733 22.172 26.4049 22.5793 26.6246 22.9398C28.0868 25.3398 25.3398 28.0883 22.9382 26.6262C22.5779 26.4067 22.1708 26.2754 21.7502 26.2428C21.3295 26.2102 20.9071 26.2774 20.5173 26.4388C20.1275 26.6002 19.7813 26.8513 19.5068 27.1717C19.2323 27.4921 19.0373 27.8728 18.9376 28.2828C18.2749 31.0142 14.3894 31.0142 13.7268 28.2828C13.6273 27.8724 13.4324 27.4914 13.1579 27.1706C12.8834 26.8498 12.537 26.5984 12.147 26.4368C11.7569 26.2752 11.3342 26.208 10.9133 26.2406C10.4923 26.2733 10.085 26.4049 9.72456 26.6246C7.32448 28.0868 4.57598 25.3398 6.03812 22.9382C6.25759 22.5779 6.38895 22.1708 6.42151 21.7502C6.45407 21.3295 6.38692 20.9071 6.22551 20.5173C6.06409 20.1275 5.81298 19.7813 5.49257 19.5068C5.17217 19.2323 4.79151 19.0373 4.38155 18.9376C1.65016 18.2749 1.65016 14.3894 4.38155 13.7268C4.79188 13.6273 5.17294 13.4324 5.4937 13.1579C5.81447 12.8834 6.06589 12.537 6.22749 12.147C6.38909 11.7569 6.4563 11.3342 6.42367 10.9133C6.39103 10.4923 6.25946 10.085 6.03967 9.72456C4.57754 7.32448 7.32448 4.57598 9.72611 6.03812C11.2754 6.98384 13.2975 6.147 13.7268 4.38155Z" stroke="currentColor" stroke-width="3.06231" stroke-linecap="round" stroke-linejoin="round"/>
<path d="M20.9988 16.3324C20.9988 17.57 20.5071 18.7569 19.632 19.632C18.7569 20.5071 17.57 20.9988 16.3324 20.9988C15.0948 20.9988 13.9079 20.5071 13.0328 19.632C12.1577 18.7569 11.666 17.57 11.666 16.3324C11.666 15.0948 12.1577 13.9079 13.0328 13.0328C13.9079 12.1577 15.0948 11.666 16.3324 11.666C17.57 11.666 18.7569 12.1577 19.632 13.0328C20.5071 13.9079 20.9988 15.0948 20.9988 16.3324V16.3324Z" stroke="currentColor" stroke-width="4.08309" stroke-linecap="round" stroke-linejoin="round"/>
</svg>
