<svg width="16" height="16" viewBox="0 0 16 16" fill="none" xmlns="http://www.w3.org/2000/svg">
<path d="M12.5 9.49984C12.0569 9.50277 11.6199 9.60383 11.2205 9.79576C10.8211 9.98768 10.4692 10.2657 10.19 10.6098L6.36499 8.84734C6.54483 8.29665 6.54483 7.70303 6.36499 7.15234L10.19 5.38984C10.6412 5.93432 11.2702 6.3019 11.9661 6.42772C12.662 6.55354 13.3799 6.42951 13.9932 6.07752C14.6065 5.72553 15.0758 5.1682 15.3182 4.5039C15.5605 3.8396 15.5605 3.11103 15.318 2.44677C15.0755 1.78252 14.6061 1.22527 13.9927 0.873393C13.3794 0.521512 12.6614 0.397612 11.9656 0.523559C11.2697 0.649507 10.6408 1.01721 10.1896 1.56176C9.73853 2.10632 9.49428 2.79273 9.49999 3.49984C9.50225 3.67852 9.51981 3.85667 9.55249 4.03234L5.59249 5.85484C5.1703 5.44203 4.63567 5.16298 4.05559 5.05266C3.47552 4.94235 2.87578 5.00567 2.33153 5.23469C1.78728 5.46371 1.32271 5.84826 0.996041 6.34014C0.669369 6.83202 0.495117 7.40937 0.495117 7.99984C0.495117 8.59032 0.669369 9.16766 0.996041 9.65955C1.32271 10.1514 1.78728 10.536 2.33153 10.765C2.87578 10.994 3.47552 11.0573 4.05559 10.947C4.63567 10.8367 5.1703 10.5577 5.59249 10.1448L9.55249 11.9673C9.51981 12.143 9.50225 12.3212 9.49999 12.4998C9.49999 13.0932 9.67594 13.6732 10.0056 14.1666C10.3352 14.6599 10.8038 15.0444 11.3519 15.2715C11.9001 15.4985 12.5033 15.558 13.0853 15.4422C13.6672 15.3264 14.2018 15.0407 14.6213 14.6212C15.0409 14.2016 15.3266 13.6671 15.4423 13.0851C15.5581 12.5032 15.4987 11.9 15.2716 11.3518C15.0446 10.8036 14.66 10.3351 14.1667 10.0054C13.6734 9.67579 13.0933 9.49984 12.5 9.49984ZM12.5 1.99984C12.7967 1.99984 13.0867 2.08782 13.3333 2.25264C13.58 2.41746 13.7723 2.65173 13.8858 2.92582C13.9993 3.19991 14.029 3.50151 13.9712 3.79248C13.9133 4.08345 13.7704 4.35072 13.5607 4.5605C13.3509 4.77028 13.0836 4.91314 12.7926 4.97102C12.5017 5.0289 12.2001 4.99919 11.926 4.88566C11.6519 4.77213 11.4176 4.57987 11.2528 4.3332C11.088 4.08652 11 3.79651 11 3.49984C11 3.10202 11.158 2.72049 11.4393 2.43918C11.7206 2.15788 12.1022 1.99984 12.5 1.99984ZM3.49999 9.49984C3.20332 9.49984 2.91331 9.41187 2.66664 9.24705C2.41996 9.08222 2.2277 8.84796 2.11417 8.57387C2.00064 8.29978 1.97093 7.99818 2.02881 7.70721C2.08669 7.41623 2.22955 7.14896 2.43933 6.93918C2.64911 6.7294 2.91638 6.58654 3.20736 6.52866C3.49833 6.47079 3.79993 6.50049 4.07402 6.61402C4.3481 6.72755 4.58237 6.91981 4.74719 7.16649C4.91202 7.41316 4.99999 7.70317 4.99999 7.99984C4.99999 8.39767 4.84196 8.7792 4.56065 9.0605C4.27935 9.34181 3.89782 9.49984 3.49999 9.49984ZM12.5 13.9998C12.2033 13.9998 11.9133 13.9119 11.6666 13.747C11.42 13.5822 11.2277 13.348 11.1142 13.0739C11.0006 12.7998 10.9709 12.4982 11.0288 12.2072C11.0867 11.9162 11.2296 11.649 11.4393 11.4392C11.6491 11.2294 11.9164 11.0865 12.2074 11.0287C12.4983 10.9708 12.7999 11.0005 13.074 11.114C13.3481 11.2276 13.5824 11.4198 13.7472 11.6665C13.912 11.9132 14 12.2032 14 12.4998C14 12.8977 13.842 13.2792 13.5607 13.5605C13.2793 13.8418 12.8978 13.9998 12.5 13.9998Z" fill="#BDBDBD"/>
</svg>
