<svg width="37" height="9" viewBox="0 0 37 9" fill="none" xmlns="http://www.w3.org/2000/svg">
<path d="M18.5002 6.45817C19.5817 6.45817 20.4585 5.58139 20.4585 4.49984C20.4585 3.41828 19.5817 2.5415 18.5002 2.5415C17.4186 2.5415 16.5418 3.41828 16.5418 4.49984C16.5418 5.58139 17.4186 6.45817 18.5002 6.45817Z" stroke="#CBCCCD" stroke-width="3.91667" stroke-linecap="round" stroke-linejoin="round"/>
<path d="M32.2085 6.45817C33.2901 6.45817 34.1668 5.58139 34.1668 4.49984C34.1668 3.41828 33.2901 2.5415 32.2085 2.5415C31.1269 2.5415 30.2502 3.41828 30.2502 4.49984C30.2502 5.58139 31.1269 6.45817 32.2085 6.45817Z" stroke="#CBCCCD" stroke-width="3.91667" stroke-linecap="round" stroke-linejoin="round"/>
<path d="M4.79183 6.45817C5.87339 6.45817 6.75016 5.58139 6.75016 4.49984C6.75016 3.41828 5.87339 2.5415 4.79183 2.5415C3.71027 2.5415 2.8335 3.41828 2.8335 4.49984C2.8335 5.58139 3.71027 6.45817 4.79183 6.45817Z" stroke="#CBCCCD" stroke-width="3.91667" stroke-linecap="round" stroke-linejoin="round"/>
</svg>
